<svg width="126" height="80" viewBox="0 0 126 80" fill="none" xmlns="http://www.w3.org/2000/svg">
<path d="M0.80852 76.5986V69.1459H2.63261V72.0228H3.38309L4.92575 69.1459H6.88535L4.87363 72.7107V72.7316L7 76.5986H4.95702L3.38309 73.5759H2.63261V76.5986H0.80852ZM8.64486 76.5986L11.1777 69.1459H13.0956L15.6285 76.5986H13.7523L13.2937 75.0351H10.9693L10.5211 76.5986H8.64486ZM11.3966 73.5759H12.8663L12.4494 72.127L12.1471 70.8449H12.1263C12.0151 71.3869 11.9143 71.8143 11.824 72.127L11.3966 73.5759ZM17.9953 76.5986V69.1459H21.091C21.8137 69.1459 22.3974 69.3857 22.8421 69.8651C23.2938 70.3446 23.5197 70.9596 23.5197 71.7101C23.5197 72.4675 23.2938 73.0894 22.8421 73.5759C22.3974 74.0553 21.8137 74.2951 21.091 74.2951H19.8194V76.5986H17.9953ZM19.8194 72.7316H20.7158C21.0215 72.7316 21.2543 72.6378 21.4141 72.4501C21.5809 72.2625 21.6643 72.0158 21.6643 71.7101C21.6643 71.4043 21.5844 71.1611 21.4246 70.9804C21.2647 70.7998 21.0389 70.7094 20.747 70.7094H19.8194V72.7316ZM26.1255 76.5986V69.1459H27.9496V72.0228H28.7001L30.2427 69.1459H32.2023L30.1906 72.7107V72.7316L32.317 76.5986H30.274L28.7001 73.5759H27.9496V76.5986H26.1255ZM33.9618 76.5986L36.4947 69.1459H38.4126L40.9455 76.5986H39.0693L38.6107 75.0351H36.2862L35.838 76.5986H33.9618ZM36.7136 73.5759H38.1833L37.7664 72.127L37.4641 70.8449H37.4432C37.3321 71.3869 37.2313 71.8143 37.141 72.127L36.7136 73.5759ZM42.7431 72.8566C42.7431 71.7587 43.1079 70.8449 43.8376 70.1153C44.5742 69.3857 45.5123 69.0208 46.6519 69.0208C47.1731 69.0208 47.6803 69.1112 48.1737 69.2919C48.6671 69.4656 49.091 69.7262 49.4453 70.0736L48.6011 71.4495C48.3509 71.2271 48.0556 71.0465 47.7151 70.9075C47.3815 70.7615 47.0549 70.6886 46.7353 70.6886C46.0404 70.6886 45.5157 70.897 45.1613 71.314C44.8069 71.724 44.6298 72.2243 44.6298 72.8149C44.6298 73.4195 44.8104 73.9441 45.1718 74.3889C45.5401 74.8336 46.0612 75.056 46.7353 75.056C47.4441 75.056 48.1042 74.7502 48.7157 74.1387L49.6538 75.4729C48.8477 76.3068 47.8471 76.7237 46.6519 76.7237C45.4706 76.7237 44.522 76.3624 43.8063 75.6397C43.0975 74.91 42.7431 73.9824 42.7431 72.8566ZM54.1345 75.0456H56.438V70.7094H54.9475V71.0534C54.9475 71.7413 54.8815 72.4467 54.7495 73.1693C54.6244 73.892 54.4194 74.5174 54.1345 75.0456ZM51.4974 75.0456H52.2687C52.901 73.9476 53.2172 72.5683 53.2172 70.9075V69.1459H58.2621V75.0456H59.096V78.0579H57.4804V76.5986H53.1755V78.0579H51.4974V75.0456ZM61.248 75.0247C61.5677 74.983 61.8283 74.8684 62.0298 74.6807C62.2382 74.4931 62.4085 74.1457 62.5405 73.6384C62.6725 73.1311 62.7386 72.4501 62.7386 71.5954V69.1459H67.7418V76.5986H65.9177V70.7094H64.4688V71.6163C64.4688 73.4021 64.2013 74.6946 63.6662 75.4938C63.1312 76.2859 62.3251 76.682 61.248 76.682V75.0247ZM70.2212 76.5986L71.6492 74.2013L71.9306 73.7531V73.7322C71.1315 73.2875 70.7319 72.5509 70.7319 71.5225C70.7319 70.9735 70.857 70.5114 71.1071 70.1361C71.3573 69.754 71.6909 69.4829 72.1078 69.3231C72.4135 69.205 72.8965 69.1459 73.5566 69.1459H76.1521V76.5986H74.328V74.0866H73.6609L72.2537 76.5986H70.2212ZM73.5358 72.5752H74.328V70.7094H73.713C73.303 70.7094 73.0111 70.7789 72.8374 70.9179C72.6707 71.0569 72.5873 71.2897 72.5873 71.6163C72.5873 72.2556 72.9034 72.5752 73.5358 72.5752ZM79.3348 76.5986V69.1459H82.0761C82.8405 69.1459 83.452 69.3162 83.9106 69.6567C84.3762 69.9902 84.609 70.4697 84.609 71.0951C84.609 71.4147 84.5325 71.7205 84.3797 72.0123C84.2268 72.2973 84.0149 72.5196 83.7438 72.6794V72.7003C84.1399 72.8184 84.4318 73.0373 84.6194 73.357C84.814 73.6697 84.9113 74.0102 84.9113 74.3785C84.9113 75.1359 84.6437 75.6953 84.1087 76.0566C83.5736 76.418 82.8961 76.5986 82.0761 76.5986H79.3348ZM81.1589 72.0332H82.097C82.3124 72.0332 82.4757 71.9672 82.5869 71.8352C82.698 71.7031 82.7536 71.5398 82.7536 71.3453C82.7536 71.1576 82.6946 71.0048 82.5764 70.8866C82.4652 70.7685 82.295 70.7094 82.0657 70.7094H81.1589V72.0332ZM81.1589 75.0351H82.2533C82.5035 75.0351 82.698 74.9622 82.837 74.8162C82.976 74.6634 83.0455 74.4757 83.0455 74.2534C83.0455 74.031 82.9795 73.8503 82.8474 73.7114C82.7154 73.5654 82.5208 73.4925 82.2637 73.4925H81.1589V75.0351ZM86.8148 76.5986L89.3477 69.1459H91.2656L93.7985 76.5986H91.9223L91.4637 75.0351H89.1392L88.691 76.5986H86.8148ZM89.5666 73.5759H91.0363L90.6194 72.127L90.3171 70.8449H90.2962C90.1851 71.3869 90.0843 71.8143 89.994 72.127L89.5666 73.5759ZM95.5961 72.8566C95.5961 71.7587 95.9609 70.8449 96.6906 70.1153C97.4272 69.3857 98.3653 69.0208 99.5049 69.0208C100.026 69.0208 100.533 69.1112 101.027 69.2919C101.52 69.4656 101.944 69.7262 102.298 70.0736L101.454 71.4495C101.204 71.2271 100.909 71.0465 100.568 70.9075C100.235 70.7615 99.9079 70.6886 99.5883 70.6886C98.8934 70.6886 98.3687 70.897 98.0143 71.314C97.6599 71.724 97.4827 72.2243 97.4827 72.8149C97.4827 73.4195 97.6634 73.9441 98.0248 74.3889C98.3931 74.8336 98.9142 75.056 99.5883 75.056C100.297 75.056 100.957 74.7502 101.569 74.1387L102.507 75.4729C101.701 76.3068 100.7 76.7237 99.5049 76.7237C98.3236 76.7237 97.375 76.3624 96.6593 75.6397C95.9505 74.91 95.5961 73.9824 95.5961 72.8566ZM104.882 76.5986V74.8892H106.591V76.5986H104.882ZM109.606 76.5986V69.1459H112.702C113.425 69.1459 114.008 69.3857 114.453 69.8651C114.905 70.3446 115.13 70.9596 115.13 71.7101C115.13 72.4675 114.905 73.0894 114.453 73.5759C114.008 74.0553 113.425 74.2951 112.702 74.2951H111.43V76.5986H109.606ZM111.43 72.7316H112.327C112.632 72.7316 112.865 72.6378 113.025 72.4501C113.192 72.2625 113.275 72.0158 113.275 71.7101C113.275 71.4043 113.195 71.1611 113.035 70.9804C112.876 70.7998 112.65 70.7094 112.358 70.7094H111.43V72.7316ZM117.215 72.6169C117.215 71.7344 117.524 71.0013 118.143 70.4176C118.761 69.8339 119.564 69.542 120.551 69.542V68.7811H122.375V69.542C123.361 69.542 124.164 69.8339 124.783 70.4176C125.401 71.0013 125.71 71.7344 125.71 72.6169C125.71 73.5272 125.401 74.2846 124.783 74.8892C124.164 75.4868 123.361 75.7856 122.375 75.7856V76.7237H120.551V75.7856C119.564 75.7856 118.761 75.4868 118.143 74.8892C117.524 74.2846 117.215 73.5272 117.215 72.6169ZM122.375 74.2638C122.792 74.2638 123.143 74.104 123.427 73.7843C123.712 73.4647 123.855 73.0755 123.855 72.6169C123.855 72.1861 123.712 71.8213 123.427 71.5225C123.143 71.2167 122.792 71.0638 122.375 71.0638V74.2638ZM119.071 72.6169C119.071 73.0755 119.213 73.4647 119.498 73.7843C119.783 74.104 120.134 74.2638 120.551 74.2638V71.0638C120.134 71.0638 119.783 71.2167 119.498 71.5225C119.213 71.8213 119.071 72.1861 119.071 72.6169Z" fill="white"/>
<path d="M64.7632 7.31897L64.7632 10.1075L104.292 49.4132L104.292 46.7039L64.7632 7.31897Z" fill="white"/>
<path d="M64.7632 15.975L64.7632 18.7635L104.292 58.0692L104.292 55.3599L64.7632 15.975Z" fill="white"/>
<rect width="1.96728" height="10.1557" transform="matrix(-0.705106 0.709102 0.709102 0.705106 40.3159 14.0077)" fill="white"/>
<path d="M12.1182 26.8345H14.1641V33.72L12.1182 35.7659V26.8345Z" fill="white"/>
<path d="M14.4005 48.8287H12.3545V41.9432L14.4005 39.8972V48.8287Z" fill="white"/>
<path d="M14.4005 57.2093H12.3545V48.7893H14.4005V57.2093Z" fill="white"/>
<path d="M63.4254 7.31897L51.9759 18.6898L40.605 30.0607L63.4254 30.0607L63.4254 7.31897Z" fill="white"/>
<path d="M48.6315 14.7946H52.8021V24.1589H48.6315V14.7946Z" fill="white"/>
<rect x="40.605" y="31.3198" width="22.8204" height="2.20335" fill="white"/>
<rect x="40.605" y="31.3198" width="4.64278" height="29.1157" fill="white"/>
<rect x="3.62012" y="58.6257" width="59.8053" height="1.96728" fill="white"/>
<rect x="64.7632" y="58.6257" width="57.6806" height="1.96728" fill="white"/>
<rect x="75.2285" y="0.4729" width="63.3464" height="1.96728" transform="rotate(90 75.2285 0.4729)" fill="white"/>
<rect x="88.9214" y="10.624" width="53.1952" height="1.96728" transform="rotate(90 88.9214 10.624)" fill="white"/>
<rect y="61.8521" width="125.985" height="1.96728" fill="white"/>
<rect x="58.7822" y="40.6053" width="4.64278" height="4.64278" fill="white"/>
<rect x="58.7822" y="46.5072" width="4.64278" height="4.64278" fill="white"/>
<rect width="1.96728" height="51.928" transform="matrix(0.705129 0.709079 0.709079 -0.705129 2.95801 46.7679)" fill="white"/>
<path fill-rule="evenodd" clip-rule="evenodd" d="M38.0341 16.4471L15.7335 38.8741H15.6597V57.2092H39.1883V42.2579V38.8741V29.5738L45.2356 23.608L38.0341 16.4471ZM29.1627 43.1119L27.6444 38.439L26.126 43.1119H21.2126L25.1877 45.9999L23.6693 50.6728L27.6444 47.7848L31.6194 50.6728L30.1011 45.9999L34.0761 43.1119H29.1627Z" fill="#00B831"/>
</svg>
