<svg width="64" height="64" viewBox="0 0 64 64" fill="none" xmlns="http://www.w3.org/2000/svg">
<g clip-path="url(#clip0_504_103)">
<path d="M32.9028 19.4781L32.9028 20.8949L52.9852 40.8641L52.9852 39.4876L32.9028 19.4781Z" fill="#303030"/>
<path d="M32.9028 23.8759L32.9029 25.2926L52.9852 45.2618L52.9852 43.8853L32.9028 23.8759Z" fill="#303030"/>
<rect width="0.999474" height="5.15959" transform="matrix(-0.705106 0.709102 0.709102 0.705106 20.4824 22.8764)" fill="#303030"/>
<path d="M6.15674 29.3929H7.19619V32.8911L6.15674 33.9306V29.3929Z" fill="#303030"/>
<path d="M7.31631 40.5671H6.27686V37.0689L7.31631 36.0294V40.5671Z" fill="#303030"/>
<path d="M7.31631 44.8248H6.27686V40.5471H7.31631V44.8248Z" fill="#303030"/>
<path d="M32.223 19.4781L26.4061 25.2551L20.6292 31.0321L32.223 31.0321L32.223 19.4781Z" fill="#303030"/>
<path d="M24.707 23.2761H26.8259V28.0336H24.707V23.2761Z" fill="#303030"/>
<rect x="20.6292" y="31.6717" width="11.5939" height="1.11941" fill="#303030"/>
<rect x="20.6292" y="31.6717" width="2.35876" height="14.7922" fill="#303030"/>
<rect x="1.83911" y="45.5444" width="30.384" height="0.999474" fill="#303030"/>
<rect x="32.9028" y="45.5444" width="29.3046" height="0.999474" fill="#303030"/>
<rect x="38.22" y="16" width="32.1831" height="0.999472" transform="rotate(90 38.22 16)" fill="#303030"/>
<rect x="45.1763" y="21.1573" width="27.0258" height="0.999472" transform="rotate(90 45.1763 21.1573)" fill="#303030"/>
<rect y="47.1836" width="64.0063" height="0.999474" fill="#303030"/>
<rect x="29.8645" y="36.3893" width="2.35876" height="2.35876" fill="#303030"/>
<rect x="29.8645" y="39.3877" width="2.35876" height="2.35876" fill="#303030"/>
<rect width="0.999474" height="26.382" transform="matrix(0.705129 0.709079 0.709079 -0.705129 1.50269 39.5201)" fill="#303030"/>
<path fill-rule="evenodd" clip-rule="evenodd" d="M19.3231 24.1157L7.99334 35.5097H7.95581V44.8248H19.9095V37.2288V35.5097V30.7847L22.9818 27.7538L19.3231 24.1157ZM14.8159 37.6627L14.0445 35.2886L13.2731 37.6627H10.7769L12.7964 39.1299L12.025 41.504L14.0445 40.0368L16.064 41.504L15.2926 39.1299L17.3121 37.6627H14.8159Z" fill="#00B831"/>
</g>
<defs>
<clipPath id="clip0_504_103">
<rect width="64" height="64" fill="white"/>
</clipPath>
</defs>
</svg>
